<mxfile host="65bd71144e">
    <diagram id="fw786K-ZUkikCEgzYDE5" name="Page-1">
        <mxGraphModel dx="860" dy="520" grid="1" gridSize="10" guides="1" tooltips="1" connect="1" arrows="1" fold="1" page="1" pageScale="1" pageWidth="850" pageHeight="1100" math="0" shadow="0">
            <root>
                <mxCell id="0"/>
                <mxCell id="1" parent="0"/>
                <mxCell id="5" style="edgeStyle=none;html=1;entryX=0;entryY=0.5;entryDx=0;entryDy=0;" edge="1" parent="1" source="2" target="3">
                    <mxGeometry relative="1" as="geometry">
                        <Array as="points">
                            <mxPoint x="175" y="245"/>
                        </Array>
                    </mxGeometry>
                </mxCell>
                <mxCell id="7" style="edgeStyle=none;html=1;entryX=0;entryY=0.5;entryDx=0;entryDy=0;" edge="1" parent="1" source="2" target="6">
                    <mxGeometry relative="1" as="geometry">
                        <Array as="points">
                            <mxPoint x="175" y="345"/>
                        </Array>
                    </mxGeometry>
                </mxCell>
                <mxCell id="2" value="Viewer" style="rounded=1;whiteSpace=wrap;html=1;" vertex="1" parent="1">
                    <mxGeometry x="50" y="100" width="250" height="70" as="geometry"/>
                </mxCell>
                <mxCell id="3" value="World" style="rounded=1;whiteSpace=wrap;html=1;" vertex="1" parent="1">
                    <mxGeometry x="270" y="210" width="250" height="70" as="geometry"/>
                </mxCell>
                <mxCell id="6" value="Model" style="rounded=1;whiteSpace=wrap;html=1;" vertex="1" parent="1">
                    <mxGeometry x="270" y="310" width="250" height="70" as="geometry"/>
                </mxCell>
                <mxCell id="8" value="Setup the Contexts / States&lt;div&gt;Load in the Model Data&lt;/div&gt;" style="text;html=1;align=center;verticalAlign=middle;resizable=0;points=[];autosize=1;strokeColor=none;fillColor=none;" vertex="1" parent="1">
                    <mxGeometry x="330" y="115" width="170" height="40" as="geometry"/>
                </mxCell>
                <mxCell id="9" value="Setup the THREE.js World" style="text;html=1;align=center;verticalAlign=middle;resizable=0;points=[];autosize=1;strokeColor=none;fillColor=none;" vertex="1" parent="1">
                    <mxGeometry x="530" y="230" width="170" height="30" as="geometry"/>
                </mxCell>
                <mxCell id="10" value="Load and Build the 3D Model" style="text;html=1;align=center;verticalAlign=middle;resizable=0;points=[];autosize=1;strokeColor=none;fillColor=none;" vertex="1" parent="1">
                    <mxGeometry x="525" y="330" width="180" height="30" as="geometry"/>
                </mxCell>
            </root>
        </mxGraphModel>
    </diagram>
</mxfile>